<svg xmlns="http://www.w3.org/2000/svg" viewBox="0 0 320 440" fill="none"><defs><linearGradient id="warm" x1="0" y1="0" x2="1" y2="1"><stop offset="0" stop-color="#F2A65B"/><stop offset="1" stop-color="#2E6FB8"/></linearGradient></defs><g stroke="url(#warm)" stroke-width="5" stroke-linecap="square"><line x1="3" y1="10" x2="37" y2="10"/><line x1="43" y1="10" x2="117" y2="10"/><line x1="123" y1="10" x2="137" y2="10"/><line x1="143" y1="10" x2="157" y2="10"/><line x1="163" y1="10" x2="237" y2="10"/><line x1="163" y1="30" x2="217" y2="30"/><line x1="243" y1="30" x2="317" y2="30"/><line x1="3" y1="50" x2="77" y2="50"/><line x1="143" y1="50" x2="217" y2="50"/><line x1="223" y1="50" x2="257" y2="50"/><line x1="283" y1="50" x2="317" y2="50"/><line x1="3" y1="70" x2="17" y2="70"/><line x1="43" y1="70" x2="77" y2="70"/><line x1="163" y1="70" x2="217" y2="70"/><line x1="223" y1="70" x2="237" y2="70"/><line x1="243" y1="70" x2="257" y2="70"/><line x1="283" y1="70" x2="317" y2="70"/><line x1="3" y1="90" x2="17" y2="90"/><line x1="183" y1="90" x2="217" y2="90"/><line x1="243" y1="90" x2="297" y2="90"/><line x1="303" y1="90" x2="317" y2="90"/><line x1="23" y1="110" x2="77" y2="110"/><line x1="83" y1="110" x2="117" y2="110"/><line x1="143" y1="110" x2="157" y2="110"/><line x1="163" y1="110" x2="237" y2="110"/><line x1="243" y1="110" x2="257" y2="110"/><line x1="303" y1="110" x2="317" y2="110"/><line x1="3" y1="130" x2="17" y2="130"/><line x1="43" y1="130" x2="97" y2="130"/><line x1="103" y1="130" x2="137" y2="130"/><line x1="143" y1="130" x2="157" y2="130"/><line x1="163" y1="130" x2="197" y2="130"/><line x1="223" y1="130" x2="237" y2="130"/><line x1="263" y1="130" x2="277" y2="130"/><line x1="283" y1="130" x2="317" y2="130"/><line x1="83" y1="150" x2="117" y2="150"/><line x1="183" y1="150" x2="217" y2="150"/><line x1="243" y1="150" x2="277" y2="150"/><line x1="303" y1="150" x2="317" y2="150"/><line x1="83" y1="170" x2="97" y2="170"/><line x1="123" y1="170" x2="157" y2="170"/><line x1="183" y1="170" x2="197" y2="170"/><line x1="203" y1="170" x2="217" y2="170"/><line x1="223" y1="170" x2="237" y2="170"/><line x1="263" y1="170" x2="297" y2="170"/><line x1="303" y1="170" x2="317" y2="170"/><line x1="83" y1="190" x2="97" y2="190"/><line x1="143" y1="190" x2="177" y2="190"/><line x1="203" y1="190" x2="217" y2="190"/><line x1="243" y1="190" x2="257" y2="190"/><line x1="263" y1="190" x2="277" y2="190"/><line x1="3" y1="210" x2="17" y2="210"/><line x1="83" y1="210" x2="137" y2="210"/><line x1="163" y1="210" x2="217" y2="210"/><line x1="223" y1="210" x2="277" y2="210"/><line x1="283" y1="210" x2="317" y2="210"/><line x1="23" y1="230" x2="77" y2="230"/><line x1="143" y1="230" x2="157" y2="230"/><line x1="183" y1="230" x2="197" y2="230"/><line x1="283" y1="230" x2="317" y2="230"/><line x1="3" y1="250" x2="37" y2="250"/><line x1="43" y1="250" x2="97" y2="250"/><line x1="143" y1="250" x2="177" y2="250"/><line x1="203" y1="250" x2="237" y2="250"/><line x1="43" y1="270" x2="57" y2="270"/><line x1="103" y1="270" x2="117" y2="270"/><line x1="123" y1="270" x2="157" y2="270"/><line x1="183" y1="270" x2="237" y2="270"/><line x1="243" y1="270" x2="257" y2="270"/><line x1="303" y1="270" x2="317" y2="270"/><line x1="3" y1="290" x2="77" y2="290"/><line x1="103" y1="290" x2="137" y2="290"/><line x1="143" y1="290" x2="197" y2="290"/><line x1="223" y1="290" x2="277" y2="290"/><line x1="303" y1="290" x2="317" y2="290"/><line x1="3" y1="310" x2="57" y2="310"/><line x1="103" y1="310" x2="117" y2="310"/><line x1="163" y1="310" x2="237" y2="310"/><line x1="243" y1="310" x2="317" y2="310"/><line x1="3" y1="330" x2="37" y2="330"/><line x1="43" y1="330" x2="117" y2="330"/><line x1="123" y1="330" x2="137" y2="330"/><line x1="3" y1="350" x2="57" y2="350"/><line x1="63" y1="350" x2="97" y2="350"/><line x1="123" y1="350" x2="157" y2="350"/><line x1="163" y1="350" x2="177" y2="350"/><line x1="203" y1="350" x2="257" y2="350"/><line x1="283" y1="350" x2="317" y2="350"/><line x1="3" y1="370" x2="77" y2="370"/><line x1="103" y1="370" x2="137" y2="370"/><line x1="143" y1="370" x2="157" y2="370"/><line x1="163" y1="370" x2="177" y2="370"/><line x1="203" y1="370" x2="257" y2="370"/><line x1="283" y1="370" x2="297" y2="370"/><line x1="303" y1="370" x2="317" y2="370"/><line x1="3" y1="390" x2="17" y2="390"/><line x1="23" y1="390" x2="57" y2="390"/><line x1="63" y1="390" x2="77" y2="390"/><line x1="83" y1="390" x2="97" y2="390"/><line x1="203" y1="390" x2="277" y2="390"/><line x1="303" y1="390" x2="317" y2="390"/><line x1="3" y1="410" x2="37" y2="410"/><line x1="43" y1="410" x2="57" y2="410"/><line x1="83" y1="410" x2="117" y2="410"/><line x1="123" y1="410" x2="157" y2="410"/><line x1="183" y1="410" x2="217" y2="410"/><line x1="243" y1="410" x2="257" y2="410"/><line x1="263" y1="410" x2="297" y2="410"/><line x1="303" y1="410" x2="317" y2="410"/><line x1="3" y1="430" x2="37" y2="430"/><line x1="43" y1="430" x2="57" y2="430"/><line x1="83" y1="430" x2="97" y2="430"/><line x1="103" y1="430" x2="137" y2="430"/><line x1="163" y1="430" x2="177" y2="430"/><line x1="203" y1="430" x2="217" y2="430"/><line x1="243" y1="430" x2="277" y2="430"/><line x1="283" y1="430" x2="317" y2="430"/><line x1="10" y1="3" x2="10" y2="17"/><line x1="10" y1="43" x2="10" y2="97"/><line x1="10" y1="163" x2="10" y2="177"/><line x1="10" y1="423" x2="10" y2="437"/><line x1="30" y1="3" x2="30" y2="57"/><line x1="30" y1="63" x2="30" y2="117"/><line x1="30" y1="123" x2="30" y2="177"/><line x1="30" y1="223" x2="30" y2="237"/><line x1="30" y1="263" x2="30" y2="277"/><line x1="30" y1="323" x2="30" y2="377"/><line x1="50" y1="3" x2="50" y2="57"/><line x1="50" y1="103" x2="50" y2="157"/><line x1="50" y1="163" x2="50" y2="177"/><line x1="50" y1="263" x2="50" y2="317"/><line x1="50" y1="343" x2="50" y2="397"/><line x1="70" y1="3" x2="70" y2="17"/><line x1="70" y1="23" x2="70" y2="37"/><line x1="70" y1="43" x2="70" y2="97"/><line x1="70" y1="123" x2="70" y2="137"/><line x1="70" y1="163" x2="70" y2="177"/><line x1="70" y1="243" x2="70" y2="297"/><line x1="70" y1="303" x2="70" y2="317"/><line x1="70" y1="423" x2="70" y2="437"/><line x1="90" y1="83" x2="90" y2="97"/><line x1="90" y1="243" x2="90" y2="277"/><line x1="90" y1="343" x2="90" y2="377"/><line x1="90" y1="423" x2="90" y2="437"/><line x1="110" y1="3" x2="110" y2="57"/><line x1="110" y1="83" x2="110" y2="117"/><line x1="110" y1="123" x2="110" y2="157"/><line x1="110" y1="163" x2="110" y2="177"/><line x1="110" y1="303" x2="110" y2="317"/><line x1="130" y1="3" x2="130" y2="17"/><line x1="130" y1="23" x2="130" y2="37"/><line x1="130" y1="63" x2="130" y2="117"/><line x1="130" y1="143" x2="130" y2="157"/><line x1="130" y1="163" x2="130" y2="217"/><line x1="130" y1="223" x2="130" y2="257"/><line x1="130" y1="263" x2="130" y2="317"/><line x1="130" y1="403" x2="130" y2="437"/><line x1="150" y1="3" x2="150" y2="37"/><line x1="150" y1="163" x2="150" y2="217"/><line x1="150" y1="263" x2="150" y2="277"/><line x1="150" y1="303" x2="150" y2="317"/><line x1="150" y1="343" x2="150" y2="357"/><line x1="150" y1="363" x2="150" y2="397"/><line x1="150" y1="423" x2="150" y2="437"/><line x1="170" y1="43" x2="170" y2="57"/><line x1="170" y1="83" x2="170" y2="137"/><line x1="170" y1="203" x2="170" y2="257"/><line x1="170" y1="263" x2="170" y2="317"/><line x1="170" y1="323" x2="170" y2="337"/><line x1="170" y1="343" x2="170" y2="377"/><line x1="170" y1="383" x2="170" y2="417"/><line x1="170" y1="423" x2="170" y2="437"/><line x1="190" y1="3" x2="190" y2="57"/><line x1="190" y1="83" x2="190" y2="137"/><line x1="190" y1="363" x2="190" y2="377"/><line x1="190" y1="383" x2="190" y2="417"/><line x1="210" y1="163" x2="210" y2="217"/><line x1="230" y1="243" x2="230" y2="257"/><line x1="230" y1="263" x2="230" y2="317"/><line x1="230" y1="343" x2="230" y2="397"/><line x1="250" y1="3" x2="250" y2="17"/><line x1="250" y1="43" x2="250" y2="57"/><line x1="250" y1="123" x2="250" y2="157"/><line x1="250" y1="183" x2="250" y2="197"/><line x1="250" y1="223" x2="250" y2="237"/><line x1="250" y1="303" x2="250" y2="337"/><line x1="250" y1="403" x2="250" y2="437"/><line x1="270" y1="3" x2="270" y2="57"/><line x1="270" y1="203" x2="270" y2="257"/><line x1="270" y1="263" x2="270" y2="277"/><line x1="270" y1="303" x2="270" y2="337"/><line x1="270" y1="403" x2="270" y2="437"/><line x1="290" y1="3" x2="290" y2="37"/><line x1="290" y1="83" x2="290" y2="97"/><line x1="290" y1="103" x2="290" y2="117"/><line x1="290" y1="143" x2="290" y2="157"/><line x1="290" y1="183" x2="290" y2="197"/><line x1="290" y1="343" x2="290" y2="357"/><line x1="310" y1="3" x2="310" y2="17"/><line x1="310" y1="63" x2="310" y2="77"/><line x1="310" y1="83" x2="310" y2="117"/><line x1="310" y1="143" x2="310" y2="177"/><line x1="310" y1="203" x2="310" y2="217"/><line x1="310" y1="223" x2="310" y2="277"/><line x1="310" y1="383" x2="310" y2="417"/></g></svg>